<svg width="21" height="20" viewBox="0 0 21 20" fill="none" xmlns="http://www.w3.org/2000/svg">
<path d="M10.3977 0.929688C4.8727 0.929688 0.397705 5.29136 0.397705 10.6708C0.397705 14.9754 3.2627 18.6259 7.2352 19.9129C7.7352 20.0046 7.91854 19.7031 7.91854 19.4445C7.91854 19.2132 7.9102 18.6003 7.90604 17.7882C5.12437 18.3756 4.5377 16.4814 4.5377 16.4814C4.0827 15.3571 3.4252 15.0564 3.4252 15.0564C2.51937 14.4525 3.4952 14.4649 3.4952 14.4649C4.49937 14.5327 5.02687 15.4686 5.02687 15.4686C5.91854 16.958 7.3677 16.5276 7.93937 16.279C8.02937 15.6487 8.28687 15.22 8.57271 14.9763C6.35187 14.7326 4.0177 13.8949 4.0177 10.1627C4.0177 9.09957 4.40521 8.23053 5.04687 7.54902C4.93437 7.30285 4.59687 6.31239 5.13437 4.97084C5.13437 4.97084 5.97187 4.70981 7.88437 5.96957C8.68437 5.75314 9.53437 5.64575 10.3844 5.64079C11.2344 5.64575 12.0844 5.75314 12.8844 5.96957C14.7844 4.70981 15.6219 4.97084 15.6219 4.97084C16.1594 6.31239 15.8219 7.30285 15.7219 7.54902C16.3594 8.23053 16.7469 9.09957 16.7469 10.1627C16.7469 13.9048 14.4094 14.7284 12.1844 14.968C12.5344 15.2604 12.8594 15.8577 12.8594 16.7705C12.8594 18.074 12.8469 19.1215 12.8469 19.4379C12.8469 19.6931 13.0219 19.998 13.5344 19.9005C17.5352 18.6217 20.3977 14.9688 20.3977 10.6708C20.3977 5.29136 15.9202 0.929688 10.3977 0.929688Z" fill="#212121"/>
</svg>
